<svg width="271" height="267" viewBox="0 0 271 267" fill="none" xmlns="http://www.w3.org/2000/svg">
<rect width="271" height="267" fill="#1E1E1E"/>
<rect width="271" height="267" fill="black"/>
<rect x="19" y="15" width="237" height="237" rx="118.5" fill="#292929"/>
<path d="M202 104.5C202 115.27 193.27 124 182.5 124C171.73 124 163 115.27 163 104.5C163 93.7304 171.73 85 182.5 85C193.27 85 202 93.7304 202 104.5Z" fill="white"/>
<path d="M120.219 161.875V166.938H179.188V161.875H120.219ZM118.344 168.859V159.953H184.484V168.859H118.344Z" fill="white"/>
<path d="M93.9688 108.484L49.625 127.609L51.9219 132.672L107.516 108.578L51.9219 84.4844L49.625 89.5938L93.9688 108.484ZM47.0469 126.625L89.1875 108.484L47.0469 90.5312L50.9844 82H54.3594L115.672 108.578L54.3594 135.203H50.9844L47.0469 126.625Z" fill="white"/>
<path d="M197 105C197 109.418 193.418 113 189 113C184.582 113 181 109.418 181 105C181 100.582 184.582 97 189 97C193.418 97 197 100.582 197 105Z" fill="black"/>
</svg>
